<svg fill="#9e1c00" width="20" height="20" viewBox="-0.075 -0.05 0.6 0.6" xmlns="http://www.w3.org/2000/svg" preserveAspectRatio="xMinYMin" class="jam jam-trash-f"><path d="M.3.05h.125A.025.025 0 0 1 .45.075v.05A.025.025 0 0 1 .425.15h-.4A.025.025 0 0 1 0 .125v-.05A.025.025 0 0 1 .025.05H.15V.025A.025.025 0 0 1 .175 0h.1A.025.025 0 0 1 .3.025zM.395.2.38.43A.075.075 0 0 1 .305.5H.146A.075.075 0 0 1 .071.43L.055.2zm-.22.025A.025.025 0 0 0 .15.25v.175a.025.025 0 0 0 .05 0V.25A.025.025 0 0 0 .175.225m.1 0A.025.025 0 0 0 .25.25v.175a.025.025 0 0 0 .05 0V.25A.025.025 0 0 0 .275.225"/></svg>